Coordinates
version=1
nRows=34
nColumns=38
inDegrees=no

Units are S.I. units (second, meters, Newtons, ...)
If the header above contains a line with 'inDegrees', this indicates whether rotational values are in degrees (yes) or radians (no).

endheader
time	pelvis_tilt	pelvis_list	pelvis_rotation	pelvis_tx	pelvis_ty	pelvis_tz	hip_flexion_r	hip_adduction_r	hip_rotation_r	knee_angle_r	ankle_angle_r	subtalar_angle_r	mtp_angle_r	hip_flexion_l	hip_adduction_l	hip_rotation_l	knee_angle_l	ankle_angle_l	subtalar_angle_l	mtp_angle_l	lumbar_extension	lumbar_bending	lumbar_rotation	arm_flex_r	arm_add_r	arm_rot_r	elbow_flex_r	pro_sup_r	wrist_flex_r	wrist_dev_r	arm_flex_l	arm_add_l	arm_rot_l	elbow_flex_l	pro_sup_l	wrist_flex_l	wrist_dev_l
0.63	2.84452	1.3367	-1.13678	0.715399	0.208248	0.922631	0.11655	-0.00661897	-0.112545	0	-0.296476	0	0	-0.306872	-0.109404	-0.083009	0.470922	0.0154567	0	0	-0.149101	0.141338	0.129773	-0.22233	-0.955219	0.0132922	1.65432	0.334252	0	0	0.641485	-0.512928	0.820336	1.15385	0.561553	0	0
0.64	2.84562	1.34172	-1.13664	0.716406	0.21828	0.920875	0.117309	-0.00534751	-0.12054	0	-0.289764	0	0	-0.312313	-0.110614	-0.0836523	0.474228	0.020048	0	0	-0.143274	0.138846	0.128773	-0.223253	-0.953663	0.0128331	1.65386	0.336736	0	0	0.639094	-0.5129	0.819109	1.15363	0.5641	0	0
0.65	2.84847	1.34482	-1.13812	0.717483	0.228363	0.919255	0.117022	-0.0038631	-0.125851	0	-0.282056	0	0	-0.319483	-0.112385	-0.0832072	0.478003	0.0235844	0	0	-0.139926	0.136759	0.128027	-0.224632	-0.95242	0.0115166	1.65406	0.339139	0	0	0.637301	-0.513163	0.818147	1.15428	0.5665	0	0
0.66	2.85234	1.34598	-1.14061	0.718603	0.238443	0.917778	0.115674	-0.00228946	-0.128346	0	-0.27996	0	0	-0.328124	-0.114808	-0.0818876	0.482641	0.0257	0	0	-0.138606	0.135191	0.127711	-0.22583	-0.951846	0.0103593	1.65426	0.340402	0	0	0.636492	-0.513231	0.818095	1.15465	0.567602	0	0
0.67	2.85551	1.34604	-1.14242	0.71977	0.248639	0.916423	0.114139	-0.000259489	-0.127597	0	-0.280377	0	0	-0.336849	-0.118121	-0.0809889	0.488985	0.0262248	0	0	-0.138191	0.134274	0.127477	-0.22681	-0.951771	0.0096495	1.65429	0.341363	0	0	0.635574	-0.513233	0.818047	1.155	0.567714	0	0
0.68	2.85881	1.34451	-1.14365	0.720892	0.25888	0.91529	0.111474	0.00344295	-0.125134	0	-0.281456	0	0	-0.346274	-0.122439	-0.0793538	0.496939	0.0267236	0	0	-0.139408	0.134201	0.126617	-0.22774	-0.951813	0.00874556	1.65455	0.342199	0	0	0.634927	-0.513105	0.818202	1.15508	0.56768	0	0
0.69	2.86077	1.34201	-1.1433	0.72209	0.269263	0.914328	0.107903	0.00894264	-0.120494	0	-0.282965	0	0	-0.35599	-0.127678	-0.0770016	0.505965	0.0269622	0	0	-0.141279	0.134859	0.125523	-0.22864	-0.951777	0.00804324	1.65472	0.343137	0	0	0.634464	-0.513077	0.818769	1.1549	0.567779	0	0
0.7	2.86137	1.33923	-1.14142	0.723382	0.279827	0.913471	0.103344	0.0154453	-0.113996	0	-0.284877	0	0	-0.365133	-0.133587	-0.0742127	0.516427	0.0264985	0	0	-0.142957	0.136003	0.124215	-0.22983	-0.951315	0.00738892	1.65518	0.343507	0	0	0.633628	-0.513223	0.819332	1.15466	0.56805	0	0
0.71	2.86094	1.33579	-1.13799	0.724743	0.290534	0.912722	0.0964583	0.0229581	-0.106832	0	-0.286674	0	0	-0.37358	-0.140438	-0.0705415	0.529574	0.0250163	0	0	-0.144966	0.137635	0.122453	-0.231022	-0.950859	0.00705728	1.65573	0.343717	0	0	0.632649	-0.51354	0.819692	1.15439	0.568781	0	0
0.72	2.85874	1.33319	-1.13273	0.726149	0.301438	0.912026	0.0904671	0.0300081	-0.102584	0.00682607	-0.288967	0	0	-0.379551	-0.147501	-0.0665013	0.544972	0.0219118	0	0	-0.145664	0.139337	0.120284	-0.232119	-0.950159	0.00747547	1.65609	0.343996	0	0	0.630284	-0.513911	0.818705	1.15425	0.569875	0	0
0.73	2.85351	1.33182	-1.12443	0.727575	0.312535	0.911406	0.0854343	0.0359433	-0.0990617	0.0106814	-0.302572	0	0	-0.381945	-0.154504	-0.0609776	0.563928	0.0169965	0	0	-0.14445	0.141371	0.117599	-0.232927	-0.949179	0.00891013	1.65608	0.344732	0	0	0.6258	-0.513932	0.815502	1.1539	0.570861	0	0
0.74	2.84607	1.33135	-1.11398	0.729029	0.323816	0.910904	0.0798466	0.0417287	-0.0947728	0.00636493	-0.333166	0	0	-0.380703	-0.161625	-0.0549526	0.587105	0.0101824	0	0	-0.141896	0.14368	0.114858	-0.234354	-0.948085	0.0102733	1.65602	0.346759	0	0	0.620224	-0.513905	0.811577	1.1536	0.572696	0	0
0.75	2.83767	1.33144	-1.10277	0.730673	0.33541	0.910508	0.0742589	0.0478667	-0.0934785	0.00145263	-0.38551	0	0	-0.376619	-0.168728	-0.0471454	0.614281	0.000230268	0	0	-0.13783	0.145571	0.112261	-0.236098	-0.946264	0.0121199	1.65535	0.351047	0	0	0.614339	-0.514444	0.808376	1.15332	0.576391	0	0
0.76	2.82975	1.33086	-1.09277	0.732583	0.347173	0.91028	0.0699569	0.0546192	-0.0972786	0.00603497	-0.425398	0	0	-0.371387	-0.175848	-0.0368787	0.645238	-0.0111033	0	0	-0.134121	0.147179	0.11096	-0.238939	-0.943461	0.0128611	1.65489	0.353604	0	0	0.609888	-0.515399	0.807965	1.1527	0.57841	0	0
0.77	2.81984	1.32949	-1.08182	0.734578	0.358903	0.910267	0.0671481	0.0617174	-0.100766	0.0178895	-0.458755	0	0	-0.364229	-0.182792	-0.0236922	0.680557	-0.0251639	0	0	-0.131069	0.149717	0.110672	-0.24138	-0.940722	0.0137248	1.6543	0.355119	0	0	0.605425	-0.516139	0.807803	1.15174	0.578683	0	0
0.78	2.80821	1.32706	-1.07068	0.736546	0.370486	0.910517	0.0663884	0.0689615	-0.101124	0.0393467	-0.481289	0	0	-0.355024	-0.189594	-0.010289	0.720379	-0.0433573	0	0	-0.129628	0.153501	0.11164	-0.242777	-0.939317	0.0152527	1.65345	0.357408	0	0	0.600341	-0.516643	0.80657	1.15129	0.578358	0	0
0.79	2.79688	1.32306	-1.06137	0.73859	0.381945	0.911062	0.0657821	0.0763985	-0.0993835	0.0678747	-0.490026	0	0	-0.344373	-0.19631	0.00365979	0.765319	-0.0659532	0	0	-0.130272	0.158151	0.114005	-0.243154	-0.93872	0.0175458	1.6527	0.358116	0	0	0.595362	-0.517107	0.805108	1.15108	0.578324	0	0
0.8	2.78784	1.31739	-1.05572	0.740747	0.393231	0.911867	0.0628502	0.0841307	-0.098822	0.0979299	-0.484449	0	0	-0.331927	-0.20331	0.0162864	0.816143	-0.093493	0	0	-0.133235	0.163022	0.117836	-0.242182	-0.939327	0.0209738	1.65154	0.358851	0	0	0.591514	-0.517683	0.804498	1.15091	0.577804	0	0
0.81	2.78254	1.30998	-1.05478	0.742938	0.404304	0.912903	0.0549764	0.0923043	-0.101544	0.121971	-0.47156	0	0	-0.317996	-0.210458	0.0266979	0.871589	-0.125467	0	0	-0.138798	0.167868	0.123172	-0.240887	-0.941119	0.0243133	1.65048	0.359917	0	0	0.589098	-0.518043	0.804744	1.15084	0.576427	0	0
0.82	2.7808	1.3009	-1.05779	0.745088	0.415145	0.9141	0.0417635	0.101199	-0.107498	0.138133	-0.45741	0	0	-0.302571	-0.217339	0.0357497	0.930506	-0.160167	0	0	-0.147113	0.172755	0.129729	-0.240728	-0.943775	0.025917	1.65074	0.358976	0	0	0.588115	-0.517816	0.805629	1.1509	0.575491	0	0
0.83	2.78239	1.29092	-1.06426	0.747174	0.425778	0.915354	0.0242078	0.109986	-0.112946	0.146532	-0.444429	0	0	-0.285312	-0.223193	0.0436738	0.991516	-0.196528	0	0	-0.157463	0.177139	0.137334	-0.24214	-0.94732	0.0254794	1.65219	0.357549	0	0	0.588451	-0.517066	0.807064	1.15133	0.573832	0	0
0.84	2.78805	1.28033	-1.07477	0.749198	0.436184	0.916571	0.00356863	0.118103	-0.116462	0.150813	-0.431518	0	0	-0.266835	-0.227344	0.0507579	1.05335	-0.23059	0	0	-0.169752	0.180568	0.145948	-0.246026	-0.950995	0.0217786	1.6555	0.353197	0	0	0.59011	-0.51616	0.809077	1.15253	0.571413	0	0
0.85	2.79546	1.27045	-1.08669	0.751133	0.446264	0.917616	-0.017632	0.125301	-0.117919	0.153136	-0.417709	0	0	-0.246095	-0.2296	0.0585473	1.11537	-0.256925	0	0	-0.182371	0.18287	0.155106	-0.25169	-0.955096	0.0155861	1.65969	0.348312	0	0	0.59304	-0.514965	0.811601	1.1542	0.567998	0	0
0.86	2.80226	1.26267	-1.09683	0.752971	0.456126	0.918463	-0.0365457	0.131275	-0.120544	0.156081	-0.404427	0	0	-0.22239	-0.230008	0.0689222	1.17595	-0.274735	0	0	-0.192952	0.18396	0.163369	-0.257928	-0.959164	0.00884137	1.66346	0.345178	0	0	0.596318	-0.513862	0.814529	1.15633	0.565176	0	0
0.87	2.80847	1.25531	-1.1056	0.754646	0.465705	0.91938	-0.0541534	0.136616	-0.126226	0.161032	-0.389537	0	0	-0.198126	-0.229222	0.0799011	1.23312	-0.29114	0	0	-0.203321	0.184871	0.171549	-0.265381	-0.963276	0.000466176	1.66699	0.343583	0	0	0.600571	-0.512185	0.818426	1.15826	0.562773	0	0
0.88	2.81481	1.24811	-1.1137	0.756143	0.475007	0.920571	-0.0715947	0.141306	-0.133119	0.165702	-0.375634	0	0	-0.173757	-0.22716	0.0906104	1.28616	-0.305738	0	0	-0.213596	0.185768	0.179267	-0.273199	-0.966277	-0.00890339	1.66988	0.341822	0	0	0.605268	-0.509429	0.822669	1.15876	0.560611	0	0
0.89	2.82281	1.24111	-1.12254	0.757562	0.484185	0.922111	-0.0906252	0.145429	-0.137821	0.166804	-0.364077	0	0	-0.149638	-0.223776	0.100412	1.33452	-0.31012	0	0	-0.223651	0.186039	0.185859	-0.2803	-0.967247	-0.0180615	1.67187	0.339684	0	0	0.609691	-0.506233	0.826666	1.15809	0.558442	0	0
0.9	2.8334	1.23526	-1.13353	0.759011	0.493341	0.923911	-0.111023	0.148597	-0.137674	0.163892	-0.354999	0	0	-0.125577	-0.218465	0.109107	1.37809	-0.298563	0	0	-0.232583	0.184621	0.191279	-0.285684	-0.966597	-0.0253408	1.6725	0.337833	0	0	0.613711	-0.503575	0.831	1.15671	0.556015	0	0
0.91	2.84636	1.23036	-1.14681	0.760461	0.50244	0.925864	-0.133052	0.150609	-0.132853	0.156538	-0.347821	0	0	-0.102081	-0.211371	0.116535	1.4172	-0.276897	0	0	-0.240527	0.181533	0.195728	-0.288643	-0.965832	-0.0297129	1.67129	0.339115	0	0	0.61759	-0.501717	0.835902	1.15501	0.55301	0	0
0.92	2.86008	1.22626	-1.16172	0.761999	0.511518	0.927891	-0.156262	0.152152	-0.125448	0.145805	-0.341981	0	0	-0.0794466	-0.203343	0.12126	1.4509	-0.254224	0	0	-0.247505	0.177437	0.199941	-0.289767	-0.964183	-0.032228	1.66963	0.340371	0	0	0.620731	-0.50081	0.840739	1.15354	0.549978	0	0
0.93	2.87324	1.22314	-1.17776	0.763671	0.520591	0.929894	-0.179288	0.152952	-0.117302	0.132935	-0.338555	0	0	-0.0572792	-0.194784	0.12286	1.47833	-0.235849	0	0	-0.253469	0.172734	0.204845	-0.28992	-0.962118	-0.033617	1.66842	0.339878	0	0	0.62299	-0.500687	0.844977	1.15257	0.547443	0	0
0.94	2.88581	1.22102	-1.19508	0.76542	0.529631	0.931809	-0.201118	0.152874	-0.110857	0.119553	-0.337514	0	0	-0.0353966	-0.185612	0.122033	1.49917	-0.223318	0	0	-0.258607	0.16733	0.211006	-0.289881	-0.961025	-0.034326	1.66732	0.340328	0	0	0.624495	-0.500864	0.848114	1.15223	0.54551	0	0
0.95	2.89862	1.22	-1.21374	0.767226	0.538674	0.933612	-0.221159	0.151669	-0.108299	0.106586	-0.338229	0	0	-0.0135146	-0.176115	0.119524	1.51301	-0.216336	0	0	-0.262543	0.160927	0.217725	-0.289587	-0.960144	-0.0342871	1.66596	0.342319	0	0	0.62539	-0.501295	0.850398	1.15215	0.543981	0	0
0.96	2.9109	1.22002	-1.23225	0.769076	0.547732	0.935257	-0.239259	0.14992	-0.108954	0.0948208	-0.339643	0	0	0.00868934	-0.167356	0.115455	1.52043	-0.213234	0	0	-0.265262	0.154327	0.224207	-0.289503	-0.958449	-0.0344207	1.66563	0.342198	0	0	0.625564	-0.50236	0.852007	1.15251	0.542265	0	0
